# xmcd
#
# Track frame offsets: 
#        150
#        22221
#        42440
#
# Disc length: 831 seconds
#
# Revision: 7
# Processed by: cddbd v1.5.2PL0 Copyright (c) Steve Scherf et al.
# Submitted via: ExactAudioCopy v1.1
#
DISCID=23033d03
DTITLE=嵐 - 復活LOVE
DYEAR=2016
DGENRE=JPop
TTITLE0=復活LOVE
TTITLE1=affection
TTITLE2=affection（オリジナル・カラオケ）
EXTD=
EXTT0=
EXTT1=
EXTT2=
PLAYORDER=
